<?xml version="1.0" encoding="UTF-8" standalone="no"?>
<svg
   xmlns:dc="http://purl.org/dc/elements/1.1/"
   xmlns:cc="http://creativecommons.org/ns#"
   xmlns:rdf="http://www.w3.org/1999/02/22-rdf-syntax-ns#"
   xmlns:svg="http://www.w3.org/2000/svg"
   xmlns="http://www.w3.org/2000/svg"
   version="1.1"
   id="svg4221"
   viewBox="0 0 200 200"
   height="200"
   width="200">
  <defs
     id="defs4223" />
  <metadata
     id="metadata4226">
    <rdf:RDF>
      <cc:Work
         rdf:about="">
        <dc:format>image/svg+xml</dc:format>
        <dc:type
           rdf:resource="http://purl.org/dc/dcmitype/StillImage" />
        <dc:title></dc:title>
      </cc:Work>
    </rdf:RDF>
  </metadata>
  <g
     transform="translate(0,-852.36216)"
     id="layer1">
    <rect
       ry="13.831703"
       rx="31.881874"
       y="979.505"
       x="52.857147"
       height="47.5"
       width="96.071434"
       id="rect4890"
       style="opacity:1;fill:#000000;fill-opacity:1" />
    <path
       d="m 140.47063,888.97544 a 46.785713,64.642853 0 0 1 -6.76851,88.13395 46.785713,64.642853 0 0 1 -64.079065,-4.03747 46.785713,64.642853 0 0 1 -0.934792,-88.61932 46.785713,64.642853 0 0 1 63.966687,-6.61595"
       id="path4854-8"
       style="opacity:1;fill:#ffffff;fill-opacity:1" />
    <path
       d="m 131.72042,895.72983 a 37.142857,56.42857 0 0 1 -5.37348,76.93462 37.142857,56.42857 0 0 1 -50.871928,-3.52442 37.142857,56.42857 0 0 1 -0.742125,-77.3583 37.142857,56.42857 0 0 1 50.782713,-5.77526"
       id="path4854"
       style="opacity:1;fill:#000000;fill-opacity:1" />
  </g>
</svg>
