<?xml version="1.0" encoding="UTF-8" standalone="no"?>
<svg
   xmlns:dc="http://purl.org/dc/elements/1.1/"
   xmlns:cc="http://creativecommons.org/ns#"
   xmlns:rdf="http://www.w3.org/1999/02/22-rdf-syntax-ns#"
   xmlns:svg="http://www.w3.org/2000/svg"
   xmlns="http://www.w3.org/2000/svg"
   version="1.1"
   id="svg4221"
   viewBox="0 0 200 200"
   height="200"
   width="200">
  <defs
     id="defs4223" />
  <metadata
     id="metadata4226">
    <rdf:RDF>
      <cc:Work
         rdf:about="">
        <dc:format>image/svg+xml</dc:format>
        <dc:type
           rdf:resource="http://purl.org/dc/dcmitype/StillImage" />
        <dc:title></dc:title>
      </cc:Work>
    </rdf:RDF>
  </metadata>
  <g
     transform="translate(0,-852.36216)"
     id="layer1">
    <rect
       transform="matrix(-0.5188471,0.85486706,-0.8724242,-0.48874944,0,0)"
       rx="71.540833"
       ry="5.9591193"
       y="-618.12482"
       x="661.07373"
       height="19.544262"
       width="143.08167"
       id="rect4241"
       style="opacity:1;fill:#000000;fill-opacity:1" />
    <path
       transform="matrix(0.87465169,0.48475192,-0.51477051,0.85732801,0,0)"
       d="m 609.34712,828.63245 a 5.8642111,16.28562 0 0 1 -4.76876,15.99895 5.8642111,16.28562 0 0 1 -6.55039,-10.02165 5.8642111,16.28562 0 0 1 2.32149,-19.7431 5.8642111,16.28562 0 0 1 7.41772,2.64551"
       id="path4243"
       style="opacity:1;fill:#000000;fill-opacity:1" />
    <path
       d="m 88.052642,1032.7425 c -0.597681,-0.4664 -0.944866,-0.8455 -1.775458,-0.9756 -0.476026,-0.075 -0.964297,0.028 -1.446602,0.029 -0.699007,0 -1.401463,-0.092 -2.096879,-0.024 -0.765373,0.075 -1.500677,0.3309 -2.259989,0.4498 -1.076992,0.1686 -2.163584,0.2747 -3.245377,0.4122 -1.495509,0.2152 -3.012265,0.3222 -4.486526,0.6456 -1.576555,0.3458 -3.075518,0.9683 -4.641363,1.3565 -1.883622,0.4668 -3.806247,0.7758 -5.699155,1.2067 -4.476584,1.0188 -7.142526,1.9028 -11.711175,2.5608 -1.993188,0.2871 -4.011659,0.3783 -6.01749,0.5672 -2.247243,-0.4076 -4.526449,-0.6773 -6.74173,-1.223 -6.88664,-1.6968 -14.89898,-5.3307 -20.536281,-9.5539 -1.107747,-0.8299 -2.082442,-1.8118 -3.123663,-2.7177 -3.146847,-3.0472 -5.2454599,-5.5508 -5.4269122,-9.9738 -0.030924,-0.7536 -0.028867,-1.5153 0.087199,-2.2613 0.1032731,-0.6637 0.3774967,-1.2923 0.5662451,-1.9386 1.1342754,-3.1825 3.4465484,-5.4847 6.0701624,-7.5959 0.486441,-0.2945 0.97288,-0.589 1.459321,-0.8836 0.686677,-0.5578 8.896887,8.7722 8.21021,9.3299 l 0,0 c -0.235296,0.1176 -0.470593,0.2353 -0.705889,0.353 -1.361716,0.4783 -1.903851,1.871 -3.059177,2.6457 -0.29634,0.2705 -0.696146,0.4336 -0.958454,0.7347 -1.420461,1.6308 -0.928851,4.5519 -0.533513,6.3575 0.441471,1.0318 0.791242,2.1042 1.324412,3.0952 1.434925,2.6669 3.271637,5.1802 5.702358,7.1154 3.305724,2.632 6.806218,4.2053 11.035502,5.0094 2.042864,0.3885 4.155119,0.275 6.232678,0.4124 5.295959,-0.5266 6.463203,-0.3736 11.555733,-1.9492 4.862252,-1.5043 5.582876,-2.1515 9.805995,-4.6721 4.808573,-2.87 3.019603,-1.6394 7.073685,-5.0243 0.856902,-0.6722 1.660534,-1.4123 2.570709,-2.0164 0.724004,-0.4804 1.558674,-0.7872 2.312028,-1.224 0.698939,-0.4053 1.32872,-0.9174 2.041207,-1.3003 0.56519,-0.3038 1.197793,-0.4759 1.778057,-0.7523 0.569919,-0.2712 2.373982,-1.2686 3.047593,-1.638 0.989385,-0.2441 4.581925,13.1987 3.59254,13.4429 z"
       id="path4263"
       style="opacity:1;fill:#000000;fill-opacity:1" />
  </g>
</svg>
