<?xml version="1.0" encoding="UTF-8" standalone="no"?>
<svg
   xmlns:dc="http://purl.org/dc/elements/1.1/"
   xmlns:cc="http://creativecommons.org/ns#"
   xmlns:rdf="http://www.w3.org/1999/02/22-rdf-syntax-ns#"
   xmlns:svg="http://www.w3.org/2000/svg"
   xmlns="http://www.w3.org/2000/svg"
   width="200"
   height="200"
   viewBox="0 0 200 200"
   id="svg4221"
   version="1.1">
  <defs
     id="defs4223" />
  <metadata
     id="metadata4226">
    <rdf:RDF>
      <cc:Work
         rdf:about="">
        <dc:format>image/svg+xml</dc:format>
        <dc:type
           rdf:resource="http://purl.org/dc/dcmitype/StillImage" />
        <dc:title></dc:title>
      </cc:Work>
    </rdf:RDF>
  </metadata>
  <rect
     ry="6.3520002"
     rx="77.797897"
     y="71.18644"
     x="20.338984"
     height="105.93221"
     width="161.01695"
     id="rect5014"
     style="opacity:1;fill:#000000;fill-opacity:1" />
  <rect
     ry="6.3520002"
     rx="21.610529"
     y="68.765778"
     x="100.97245"
     height="111.45921"
     width="1.4981078"
     id="rect5016"
     style="opacity:1;fill:#ffffff;fill-opacity:1" />
  <rect
     transform="matrix(0.00604002,0.99998176,-0.99998973,-0.00453151,0,0)"
     ry="9.2719116"
     rx="21.6117"
     y="-180.82097"
     x="123.59741"
     height="162.69522"
     width="1.498189"
     id="rect5016-6"
     style="opacity:1;fill:#ffffff;fill-opacity:1" />
  <path
     d="m 97.98507,65.237996 c -0.350765,-1.068472 -0.657551,-2.147355 -1.072717,-3.193358 -0.271407,-0.902659 -0.723528,-1.719591 -1.189929,-2.531785 -0.350164,-0.497828 -0.566853,-1.240642 -1.014013,-1.655458 -0.506568,-0.615319 -0.957048,-1.304014 -1.522307,-1.868506 -0.537476,-0.321264 -0.955931,-0.920899 -1.46181,-1.329245 -0.351974,-0.328283 -0.73503,-0.580736 -1.170743,-0.77835 -0.740039,-0.375353 -1.492629,-0.725973 -2.230614,-1.106843 -1.305022,-0.706232 -2.640348,-1.353119 -3.94729,-2.056346 -1.150088,-0.601285 -2.318673,-1.166205 -3.471724,-1.761484 -0.72398,-0.375562 -1.501697,-0.627598 -2.259508,-0.925473 -0.977037,-0.155747 -1.915824,-0.471816 -2.8762,-0.697816 -1.540186,-0.416886 -3.123463,-0.63218 -4.706012,-0.810384 -1.566443,-0.104803 -3.125191,-0.293598 -4.690165,-0.415117 -1.315347,-0.09992 -2.635299,-0.104108 -3.95365,-0.113076 -1.287114,0.02489 -2.579211,-0.05716 -3.864376,0.02923 -1.134514,0.137676 -2.2695,0.295788 -3.401209,0.4617 -1.08605,0.121923 -2.15074,0.366487 -3.23063,0.527496 -0.83416,0.105603 -1.624971,0.353528 -2.399501,0.667196 -0.402053,0.187282 -0.825284,0.350832 -1.197691,0.594256 -3.289246,1.929791 -6.018384,-2.721905 -2.729137,-4.651696 l 0,0 c 0.617312,-0.350654 1.24927,-0.676625 1.908141,-0.943697 1.172724,-0.472113 2.380184,-0.830612 3.63654,-1.002303 1.084364,-0.154714 2.151509,-0.414599 3.242414,-0.529208 1.284189,-0.182859 2.569172,-0.376018 3.859026,-0.507897 1.403178,-0.07344 2.808614,-0.03331 4.213355,-0.03813 1.446228,0.01 2.89406,0.0178 4.336851,0.129339 1.627865,0.127907 3.249655,0.319789 4.878799,0.433196 1.805807,0.206706 3.611694,0.456962 5.370494,0.928368 0.576589,0.142973 1.143665,0.323222 1.721714,0.457794 0.32681,0.07608 0.888587,0.177578 1.188559,0.256411 0.225142,0.05917 0.444923,0.13712 0.667384,0.20568 0.929107,0.365903 1.881203,0.680608 2.763692,1.154402 1.177648,0.611321 2.375507,1.183537 3.549396,1.802488 1.279765,0.689396 2.588246,1.321974 3.8665,2.01373 0.701322,0.362895 1.414153,0.702638 2.121009,1.051778 0.840584,0.420645 1.638875,0.909313 2.334829,1.547537 0.648978,0.575131 1.21766,1.211406 1.89698,1.751079 0.625125,0.695541 1.213673,1.427845 1.780979,2.170768 0.555931,0.739145 1.040581,1.519057 1.474364,2.336055 0.58889,1.03703 1.1612,2.088065 1.52422,3.229785 0.49445,1.265105 0.8861,2.562554 1.28614,3.859852 0.92492,3.699696 -4.307236,5.007736 -5.23216,1.30804 z"
     id="path5033"
     style="opacity:1;fill:#ffffff;fill-opacity:1" />
  <rect
     ry="9.2719097"
     rx="5.2433796"
     y="42.698704"
     x="85.691757"
     height="23.969721"
     width="29.063288"
     id="rect5043"
     style="opacity:1;fill:#000000;fill-opacity:1" />
  <rect
     transform="matrix(0.85482852,0.51891059,-0.51891059,0.85482852,0,0)"
     ry="14.065854"
     rx="27.415369"
     y="-15.377252"
     x="40.803402"
     height="32.059502"
     width="54.830738"
     id="rect5045"
     style="opacity:1;fill:#000000;fill-opacity:1" />
  <rect
     transform="matrix(0.79222523,0.61022879,-0.82690431,0.56234265,0,0)"
     ry="10.754579"
     rx="18.900328"
     y="-19.539728"
     x="46.490345"
     height="24.512299"
     width="37.800655"
     id="rect5045-8"
     style="opacity:1;fill:#ffffff;fill-opacity:1" />
  <rect
     transform="matrix(-0.82454408,0.56579772,-0.56579772,-0.82454408,0,0)"
     ry="14.065854"
     rx="27.415369"
     y="-125.2748"
     x="-126.51026"
     height="32.059502"
     width="54.830738"
     id="rect5045-9"
     style="opacity:1;fill:#000000;fill-opacity:1" />
  <rect
     transform="matrix(-0.88203756,0.47117909,-0.17252864,-0.9850045,0,0)"
     ry="10.754579"
     rx="18.900328"
     y="-115.0325"
     x="-161.73439"
     height="24.512299"
     width="37.800655"
     id="rect5045-8-6"
     style="opacity:1;fill:#ffffff;fill-opacity:1" />
</svg>
