<?xml version="1.0" encoding="UTF-8" standalone="no"?>
<svg
   xmlns:dc="http://purl.org/dc/elements/1.1/"
   xmlns:cc="http://creativecommons.org/ns#"
   xmlns:rdf="http://www.w3.org/1999/02/22-rdf-syntax-ns#"
   xmlns:svg="http://www.w3.org/2000/svg"
   xmlns="http://www.w3.org/2000/svg"
   version="1.1"
   id="svg4221"
   viewBox="0 0 200 200"
   height="200"
   width="200">
  <defs
     id="defs4223" />
  <metadata
     id="metadata4226">
    <rdf:RDF>
      <cc:Work
         rdf:about="">
        <dc:format>image/svg+xml</dc:format>
        <dc:type
           rdf:resource="http://purl.org/dc/dcmitype/StillImage" />
        <dc:title></dc:title>
      </cc:Work>
    </rdf:RDF>
  </metadata>
  <g
     transform="translate(0,-852.36216)"
     id="layer1">
    <rect
       ry="42.444305"
       rx="60.221649"
       y="854.85632"
       x="101.51437"
       height="134.02148"
       width="15.536408"
       id="rect4840"
       style="opacity:1;fill:#000000;fill-opacity:1" />
    <path
       d="m 112.88874,995.20534 a 4.509604,7.6674972 0 0 1 -0.65244,10.45386 4.509604,7.6674972 0 0 1 -6.17648,-0.479 4.509604,7.6674972 0 0 1 -0.0901,-10.51137 4.509604,7.6674972 0 0 1 6.16565,-0.78473"
       id="path4846"
       style="opacity:1;fill:#000000;fill-opacity:1" />
    <path
       transform="matrix(1.2690242,0,0,1.6769941,-16.964565,-637.26155)"
       d="m 99.285715,987.3622 -5.650882,-4.36509 2.405225,-6.72319 7.137392,0.20992 2.00593,6.85294 z"
       id="path4848"
       style="opacity:1;fill:#000000;fill-opacity:1" />
    <path
       d="m 113.76751,1026.7882 c -1.789,-0.015 -3.57814,-0.01 -5.3672,-0.01 -1.84009,-0.06 -3.65554,0.056 -5.45398,0.3784 -2.46553,0.5113 -4.606406,1.6842 -6.762123,2.7538 -2.601097,1.2998 -5.12276,2.7026 -7.554886,4.2111 -2.981657,2.0088 -5.870266,4.1103 -8.809442,6.1615 -2.594671,1.8414 -5.243812,3.6598 -8.162061,5.1371 -2.050707,1.1118 -4.319826,1.6325 -6.716128,1.8953 -5.636614,0.294 -11.338465,0.4132 -16.963925,0 -2.490256,-0.2376 -4.72652,-1.1855 -6.998245,-1.9917 -2.918263,-1.1105 -5.458563,-2.7393 -7.898714,-4.4487 -4.359823,-2.801 -7.699835,-6.4522 -10.895042,-10.1402 -2.302149,-2.6757 -4.226768,-5.5725 -5.754949,-8.608 -0.719421,-1.429 -1.673818,-3.7384 -2.297633,-5.2058 -1.700019,-3.943 -2.536375,-8.066 -3.349324,-12.1811 -0.429916,-2.6923 -0.8242573,-5.38641 -1.3963447,-8.06132 -0.2997338,-1.43912 -0.5401046,-2.88531 -0.6962547,-4.33996 0,0 10.1627584,-0.0602 10.1627584,-0.0602 l 0,0 c 0.09078,1.42792 0.24559,2.85271 0.515848,4.26573 0.480051,2.6847 0.86438,5.37666 1.213455,8.07536 0.650156,4.0652 1.405452,8.1292 2.960624,12.0374 0.87146,2.0857 1.235398,3.0913 2.314496,5.1242 1.580333,2.9771 3.63432,5.7639 5.805281,8.4633 3.168892,3.7117 6.75004,7.1696 11.164251,9.9021 2.535593,1.6052 5.124168,3.1756 8.081166,4.2083 2.245281,0.7966 4.521702,1.5812 6.987938,1.7207 4.13119,0.2407 1.617911,0.069 -7.453327,0.1078 -0.395022,0 0.790055,-10e-4 1.185072,0 1.120286,0 2.241133,-0.02 3.35949,-0.08 2.372417,-0.1669 4.680489,-0.4903 6.749479,-1.547 3.029134,-1.3411 5.717365,-3.1739 8.371465,-4.9675 2.889587,-2.0623 5.74457,-4.1563 8.640333,-6.2123 2.384295,-1.5811 4.935158,-2.9574 7.508458,-4.3151 2.173008,-1.071 4.265634,-2.3233 6.676225,-3.0028 1.780665,-0.4394 3.599999,-0.6758 5.463086,-0.5902 1.738363,-3e-4 3.476823,0.01 5.215113,-0.01 0,0 10.15504,1.3381 10.15504,1.3381 z"
       id="path4852"
       style="opacity:1;fill:#000000;fill-opacity:1" />
  </g>
</svg>
