<?xml version="1.0" encoding="UTF-8" standalone="no"?>
<svg
   xmlns:dc="http://purl.org/dc/elements/1.1/"
   xmlns:cc="http://creativecommons.org/ns#"
   xmlns:rdf="http://www.w3.org/1999/02/22-rdf-syntax-ns#"
   xmlns:svg="http://www.w3.org/2000/svg"
   xmlns="http://www.w3.org/2000/svg"
   width="200"
   height="200"
   viewBox="0 0 200 200"
   id="svg4221"
   version="1.1">
  <defs
     id="defs4223" />
  <metadata
     id="metadata4226">
    <rdf:RDF>
      <cc:Work
         rdf:about="">
        <dc:format>image/svg+xml</dc:format>
        <dc:type
           rdf:resource="http://purl.org/dc/dcmitype/StillImage" />
        <dc:title></dc:title>
      </cc:Work>
    </rdf:RDF>
  </metadata>
  <g
     id="layer1"
     transform="translate(0,-852.36216)">
    <rect
       style="opacity:1;fill:#000000;fill-opacity:1"
       id="rect4922"
       width="174.28377"
       height="13.100308"
       x="470.55362"
       y="560.93793"
       rx="78.576736"
       ry="0.045250885"
       transform="matrix(0.61783952,0.78630422,-0.49461342,0.86911309,0,0)" />
    <path
       style="opacity:1;fill:#000000;fill-opacity:1"
       id="path4924"
       d="m 92.499994,955.57649 -10.14011,-2.71704 7.423076,-7.42307 z"
       transform="matrix(1.2870348,-0.16947073,0.14161033,1.5402458,-124.72719,-443.61196)" />
    <path
       style="opacity:1;fill:#000000;fill-opacity:1"
       id="path4928"
       d="m 131.12684,1017.6957 c 4.90001,-1.6275 10.20188,-1.7375 15.19042,-0.6322 3.18984,1.24 5.62041,4.0491 7.91573,6.8719 2.89578,3.6466 6.02018,6.9768 9.55631,9.6807 2.92767,2.2565 6.14524,3.3697 9.55044,3.9146 5.15666,0.1325 -4.09045,0.093 -6.12776,-0.086 -0.52546,-0.046 1.04195,-0.2115 1.54623,-0.3959 1.89492,-0.6927 3.60801,-1.8915 5.31561,-3.0661 2.61154,-2.0691 5.31538,-4.611 6.77311,-8.0556 0.30444,-0.7194 0.50886,-1.4945 0.76328,-2.2418 1.2853,-5.0376 1.38145,-9.4058 0.67971,-14.5544 -0.92998,-5.1848 -2.9735,-9.90287 -5.03785,-14.53521 -0.88881,-2.03099 -1.80315,-4.04541 -2.71252,-6.06301 0,0 9.10718,-0.53719 9.10718,-0.53719 l 0,0 c 0.86684,2.02917 1.7348,4.0577 2.62061,6.07489 2.01533,4.80003 4.06105,9.61652 5.0933,14.89302 0.22484,1.8914 0.38353,2.8642 0.4337,4.7956 0.0905,3.4892 -0.48696,6.9495 -1.16748,10.3213 -0.23566,0.8152 -0.41112,1.6596 -0.70696,2.4456 -1.37695,3.6584 -4.23792,6.3054 -6.84651,8.5957 -1.68366,1.212 -3.40345,2.4845 -5.22675,3.3764 -4.2632,2.0852 -9.09106,1.0338 -13.59976,0.6028 -3.38906,-0.7114 -6.56917,-2.0403 -9.43747,-4.4002 -3.54106,-2.8387 -6.59565,-6.2765 -9.60214,-9.8911 -2.35745,-2.6477 -4.80576,-5.3905 -8.07827,-6.144 -3.65397,-0.4185 -2.9982,-0.2931 6.82033,-0.2218 0.36045,0 -0.71796,0.081 -1.07566,0.1347 -0.73117,0.1099 -0.98596,0.1709 -1.67746,0.3656 -0.2056,0.058 -0.40947,0.1245 -0.6142,0.1867 0,0 -9.45517,-1.4346 -9.45517,-1.4346 z" />
  </g>
</svg>
